<?xml version="1.0" encoding="UTF-8" standalone="no"?>
<!DOCTYPE svg PUBLIC "-//W3C//DTD SVG 1.1//EN" "http://www.w3.org/Graphics/SVG/1.1/DTD/svg11.dtd">
<svg version="1.1" xmlns="http://www.w3.org/2000/svg" xmlns:xlink="http://www.w3.org/1999/xlink" preserveAspectRatio="xMidYMid meet" viewBox="0 0 640 640" width="2000" height="2000"><defs><path d="M473.07 356.86L500.07 356.86L500.07 499.93L473.07 499.93L473.07 356.86Z" id="a2I7MtCW1u"></path><path d="M111.97 356.86L138.98 356.86L138.98 499.93L111.97 499.93L111.97 356.86Z" id="a4R5Lf3lvj"></path><path d="M557.45 112.34C562.97 112.34 567.45 116.81 567.45 122.34C567.45 172.89 567.45 314.55 567.45 365.11C567.45 370.63 562.97 375.11 557.45 375.11C457.11 375.11 166.1 375.11 65.77 375.11C60.24 375.11 55.77 370.63 55.77 365.11C55.77 314.55 55.77 172.89 55.77 122.34C55.77 116.81 60.24 112.34 65.77 112.34C166.1 112.34 457.11 112.34 557.45 112.34Z" id="cKWtf4oA4"></path><path d="M536.68 112.34C553.67 112.34 567.45 126.11 567.45 143.1C567.45 189.51 567.45 297.94 567.45 344.34C567.45 361.33 553.67 375.11 536.68 375.11C440.49 375.11 182.72 375.11 86.54 375.11C69.54 375.11 55.77 361.33 55.77 344.34C55.77 297.94 55.77 189.51 55.77 143.1C55.77 126.11 69.54 112.34 86.54 112.34C182.72 112.34 440.49 112.34 536.68 112.34Z" id="dWxSGbghn"></path><path d="M121.23 396.46L500.07 447.49L495.69 480.04L116.85 429.01L121.23 396.46Z" id="i27B5OvVN"></path></defs><g><g><g><use xlink:href="#a2I7MtCW1u" opacity="1" fill="#3e3e3e" fill-opacity="1"></use></g><g><use xlink:href="#a4R5Lf3lvj" opacity="1" fill="#3e3e3e" fill-opacity="1"></use></g><g><g></g><use xlink:href="#cKWtf4oA4" opacity="1" fill="#898989" fill-opacity="1"></use><g><use xlink:href="#cKWtf4oA4" opacity="1" fill-opacity="0" stroke="#898989" stroke-width="19" stroke-opacity="1"></use></g></g><g><use xlink:href="#dWxSGbghn" opacity="1" fill="#727272" fill-opacity="1"></use></g><g><use xlink:href="#i27B5OvVN" opacity="1" fill="#3e3e3e" fill-opacity="1"></use></g></g></g></svg>